<?xml version="1.0" encoding="UTF-8"?>
<svg width="512" height="512" viewBox="0 0 512 512" fill="none">
  <defs>
    <linearGradient id="psg_blue" x1="0%" y1="0%" x2="100%" y2="0%">
      <stop offset="0%" style="stop-color:#004170"/>
      <stop offset="100%" style="stop-color:#0055a4"/>
    </linearGradient>
    <linearGradient id="psg_red" x1="0%" y1="0%" x2="100%" y2="0%">
      <stop offset="0%" style="stop-color:#e30613"/>
      <stop offset="100%" style="stop-color:#ff0000"/>
    </linearGradient>
  </defs>
  <circle cx="256" cy="256" r="250" fill="url(#psg_blue)" stroke="url(#psg_red)" strokeWidth="12"/>
  <path d="M256 80C350 80 420 150 420 244C420 338 350 408 256 408C162 408 92 338 92 244C92 150 162 80 256 80Z" fill="white"/>
  <path d="M256 120C328 120 380 172 380 244C380 316 328 368 256 368C184 368 132 316 132 244C132 172 184 120 256 120Z" fill="url(#psg_red)"/>
  <path d="M256 150C311 150 350 189 350 244C350 299 311 338 256 338C201 338 162 299 162 244C162 189 201 150 256 150Z" fill="white"/>
  <path d="M220 200V288H292V200H220Z" fill="url(#psg_blue)"/>
</svg>